<svg width="175" height="30" viewBox="0 0 175 30" fill="none" xmlns="http://www.w3.org/2000/svg">
<path d="M34.035 26.408V29.608H31.187C28.883 29.608 27.2937 29.0107 26.419 27.816C25.5443 26.6427 25.3417 25.0533 25.811 23.048L26.451 20.296C26.6857 19.336 26.6643 18.5573 26.387 17.96C26.131 17.3627 25.4057 17.064 24.211 17.064H22.515V13.864H24.211C25.4057 13.864 26.131 13.5653 26.387 12.968C26.6643 12.3707 26.6857 11.592 26.451 10.632L25.811 7.88C25.3417 5.87467 25.5443 4.28533 26.419 3.112C27.2937 1.91733 28.883 1.32 31.187 1.32H34.035V4.52H31.187C30.3977 4.52 29.8643 4.776 29.587 5.288C29.3097 5.8 29.267 6.46133 29.459 7.272L30.099 10.024C30.4403 11.496 30.3977 12.6907 29.971 13.608C29.5657 14.5253 28.8297 15.144 27.763 15.464C28.8297 15.784 29.5763 16.4027 30.003 17.32C30.4297 18.216 30.4617 19.4107 30.099 20.904L29.459 23.656C29.267 24.4453 29.3097 25.096 29.587 25.608C29.8643 26.1413 30.3977 26.408 31.187 26.408H34.035ZM49.5568 16.04C49.5568 18.5147 49.0128 20.9147 47.9248 23.24C46.8581 25.5653 45.2368 27.784 43.0608 29.896L40.5008 27.496C42.3354 25.64 43.6688 23.784 44.5008 21.928C45.3541 20.072 45.7808 18.1093 45.7808 16.04V14.856C45.7808 12.7653 45.3541 10.8027 44.5008 8.968C43.6688 7.112 42.3354 5.256 40.5008 3.4L43.0608 0.999998C45.2368 3.112 46.8581 5.33067 47.9248 7.656C49.0128 9.98133 49.5568 12.3813 49.5568 14.856V16.04Z" fill="#986DFF"/>
<path d="M0.738636 3.63068V0.818181H20.375V3.63068H12.142V27H8.97159V3.63068H0.738636ZM69.9613 7.36364C69.8079 6.06818 69.1857 5.0625 68.0948 4.34659C67.0039 3.63068 65.6658 3.27273 64.0806 3.27273C62.9215 3.27273 61.9073 3.46023 61.038 3.83523C60.1772 4.21023 59.5039 4.72585 59.0181 5.3821C58.5408 6.03835 58.3022 6.78409 58.3022 7.61932C58.3022 8.31818 58.4684 8.91903 58.8008 9.42188C59.1417 9.91619 59.5763 10.3295 60.1048 10.6619C60.6332 10.9858 61.1871 11.2543 61.7667 11.4673C62.3462 11.6719 62.8789 11.8381 63.3647 11.9659L66.0238 12.6818C66.7056 12.8608 67.4641 13.108 68.2994 13.4233C69.1431 13.7386 69.9485 14.169 70.7156 14.7145C71.4911 15.2514 72.1303 15.9418 72.6332 16.7855C73.136 17.6293 73.3874 18.6648 73.3874 19.892C73.3874 21.3068 73.0167 22.5852 72.2752 23.7273C71.5423 24.8693 70.4684 25.777 69.0536 26.4503C67.6474 27.1236 65.9386 27.4602 63.9272 27.4602C62.0522 27.4602 60.4286 27.1577 59.0565 26.5526C57.6928 25.9474 56.619 25.1037 55.8349 24.0213C55.0593 22.9389 54.6204 21.6818 54.5181 20.25H57.7908C57.8761 21.2386 58.2085 22.0568 58.788 22.7045C59.3761 23.3437 60.1175 23.821 61.0124 24.1364C61.9158 24.4432 62.8874 24.5966 63.9272 24.5966C65.1374 24.5966 66.2241 24.4006 67.1871 24.0085C68.1502 23.608 68.913 23.054 69.4755 22.3466C70.038 21.6307 70.3192 20.7955 70.3192 19.8409C70.3192 18.9716 70.0764 18.2642 69.5906 17.7188C69.1048 17.1733 68.4656 16.7301 67.6729 16.3892C66.8803 16.0483 66.0238 15.75 65.1033 15.4943L61.8817 14.5739C59.8363 13.9858 58.217 13.1463 57.0238 12.0554C55.8306 10.9645 55.234 9.53693 55.234 7.77273C55.234 6.30682 55.6303 5.02841 56.4229 3.9375C57.2241 2.83807 58.2979 1.98579 59.6445 1.38068C60.9996 0.767045 62.5124 0.460226 64.1829 0.460226C65.8704 0.460226 67.3704 0.762783 68.6829 1.3679C69.9954 1.96449 71.0352 2.78267 71.8022 3.82244C72.5778 4.86221 72.9869 6.04261 73.0295 7.36364H69.9613ZM99.6683 9H96.4979C96.3104 8.08807 95.9822 7.28693 95.5135 6.59659C95.0533 5.90625 94.4908 5.3267 93.826 4.85795C93.1697 4.38068 92.4411 4.02273 91.6399 3.78409C90.8388 3.54545 90.0036 3.42614 89.1342 3.42614C87.549 3.42614 86.1129 3.8267 84.826 4.62784C83.5476 5.42898 82.5291 6.60938 81.7706 8.16903C81.0206 9.72869 80.6456 11.642 80.6456 13.9091C80.6456 16.1761 81.0206 18.0895 81.7706 19.6491C82.5291 21.2088 83.5476 22.3892 84.826 23.1903C86.1129 23.9915 87.549 24.392 89.1342 24.392C90.0036 24.392 90.8388 24.2727 91.6399 24.0341C92.4411 23.7955 93.1697 23.4418 93.826 22.973C94.4908 22.4957 95.0533 21.9119 95.5135 21.2216C95.9822 20.5227 96.3104 19.7216 96.4979 18.8182H99.6683C99.4297 20.1562 98.995 21.3537 98.3643 22.4105C97.7337 23.4673 96.9496 24.3665 96.0121 25.108C95.0746 25.8409 94.022 26.3991 92.8544 26.7827C91.6953 27.1662 90.4553 27.358 89.1342 27.358C86.9013 27.358 84.9155 26.8125 83.1768 25.7216C81.4382 24.6307 80.0703 23.0795 79.0732 21.0682C78.076 19.0568 77.5774 16.6705 77.5774 13.9091C77.5774 11.1477 78.076 8.76136 79.0732 6.75C80.0703 4.73864 81.4382 3.1875 83.1768 2.09659C84.9155 1.00568 86.9013 0.460226 89.1342 0.460226C90.4553 0.460226 91.6953 0.651988 92.8544 1.03551C94.022 1.41903 95.0746 1.98153 96.0121 2.72301C96.9496 3.45596 97.7337 4.35085 98.3643 5.40767C98.995 6.45596 99.4297 7.65341 99.6683 9ZM104.792 27V0.818181H107.962V12.4773H121.922V0.818181H125.093V27H121.922V15.2898H107.962V27H104.792ZM129.19 0.818181H132.821L140.082 13.0398H140.389L147.65 0.818181H151.281L141.821 16.2102V27H138.65V16.2102L129.19 0.818181ZM155.381 27V0.818181H158.552V13.8068H158.859L170.62 0.818181H174.762L163.768 12.6307L174.762 27H170.927L161.825 14.8295L158.552 18.5114V27H155.381Z" fill="white"/>
</svg>
