<svg width="175" height="29" viewBox="0 0 175 29" fill="none" xmlns="http://www.w3.org/2000/svg">
<rect width="175" height="29" fill="#1E1E1E"/>
<path d="M29.714 3.8084C29.277 3.8084 28.933 3.87083 28.683 3.9957C28.454 4.12056 28.288 4.40151 28.184 4.83854C28.1 5.27557 28.059 5.97273 28.059 6.93003V9.9892C28.059 10.7801 27.934 11.4668 27.684 12.0495C27.455 12.6114 27.184 13.0693 26.872 13.423C26.559 13.7768 26.268 14.0474 25.997 14.2347C26.226 14.4012 26.497 14.6613 26.809 15.0151C27.142 15.348 27.434 15.7643 27.684 16.2637C27.934 16.7424 28.059 17.2835 28.059 17.887V21.6329C28.059 22.5694 28.1 23.2562 28.184 23.6932C28.288 24.1302 28.454 24.4112 28.683 24.5361C28.933 24.6609 29.277 24.7234 29.714 24.7234H30.87V28.5318H28.402C27.819 28.5318 27.236 28.5213 26.653 28.5005C26.091 28.4797 25.57 28.3653 25.092 28.1572C24.613 27.9699 24.227 27.6057 23.936 27.0646C23.665 26.5443 23.53 25.7847 23.53 24.7858V19.6351C23.53 19.0108 23.436 18.4281 23.249 17.887C23.061 17.3251 22.78 16.8672 22.405 16.5135C22.031 16.1597 21.562 15.9828 21 15.9828V12.3617C21.562 12.3409 22.031 12.164 22.405 11.831C22.78 11.4772 23.061 11.0298 23.249 10.4887C23.436 9.9268 23.53 9.3337 23.53 8.7094V3.77718C23.53 2.77826 23.665 2.01866 23.936 1.49839C24.207 0.97811 24.571 0.61392 25.029 0.40581C25.508 0.1977 26.039 0.0832399 26.622 0.0624299C27.205 0.0208099 27.798 0 28.402 0H30.87V3.8084H29.714ZM53 14.5156C53 16.6383 52.74 18.6258 52.219 20.4779C51.719 22.3301 51.074 23.9742 50.283 25.4101C49.492 26.8669 48.648 28.0635 47.753 29L44.161 27.3455C44.973 26.409 45.702 25.3061 46.347 24.0366C46.993 22.7879 47.503 21.3728 47.878 19.7912C48.253 18.1887 48.44 16.4302 48.44 14.5156C48.44 12.601 48.253 10.8529 47.878 9.2713C47.503 7.6688 46.993 6.24327 46.347 4.99462C45.702 3.72515 44.973 2.63258 44.161 1.7169L47.753 0.03122C48.648 0.96771 49.492 2.16434 50.283 3.6211C51.074 5.07786 51.719 6.73233 52.219 8.5845C52.74 10.4159 53 12.3929 53 14.5156Z" fill="#986DFF"/>
<path d="M0.738636 3.63068V0.818181H20.375V3.63068H12.142V27H8.97159V3.63068H0.738636ZM69.9613 7.36364C69.8079 6.06818 69.1857 5.0625 68.0948 4.34659C67.0039 3.63068 65.6658 3.27273 64.0806 3.27273C62.9215 3.27273 61.9073 3.46023 61.038 3.83523C60.1772 4.21023 59.5039 4.72585 59.0181 5.3821C58.5408 6.03835 58.3022 6.78409 58.3022 7.61932C58.3022 8.31818 58.4684 8.91903 58.8008 9.42188C59.1417 9.91619 59.5763 10.3295 60.1048 10.6619C60.6332 10.9858 61.1871 11.2543 61.7667 11.4673C62.3462 11.6719 62.8789 11.8381 63.3647 11.9659L66.0238 12.6818C66.7056 12.8608 67.4641 13.108 68.2994 13.4233C69.1431 13.7386 69.9485 14.169 70.7156 14.7145C71.4911 15.2514 72.1303 15.9418 72.6332 16.7855C73.136 17.6293 73.3874 18.6648 73.3874 19.892C73.3874 21.3068 73.0167 22.5852 72.2752 23.7273C71.5423 24.8693 70.4684 25.777 69.0536 26.4503C67.6474 27.1236 65.9386 27.4602 63.9272 27.4602C62.0522 27.4602 60.4286 27.1577 59.0565 26.5526C57.6928 25.9474 56.619 25.1037 55.8349 24.0213C55.0593 22.9389 54.6204 21.6818 54.5181 20.25H57.7908C57.8761 21.2386 58.2085 22.0568 58.788 22.7045C59.3761 23.3437 60.1175 23.821 61.0124 24.1364C61.9158 24.4432 62.8874 24.5966 63.9272 24.5966C65.1374 24.5966 66.2241 24.4006 67.1871 24.0085C68.1502 23.608 68.913 23.054 69.4755 22.3466C70.038 21.6307 70.3192 20.7955 70.3192 19.8409C70.3192 18.9716 70.0764 18.2642 69.5906 17.7188C69.1048 17.1733 68.4656 16.7301 67.6729 16.3892C66.8803 16.0483 66.0238 15.75 65.1033 15.4943L61.8817 14.5739C59.8363 13.9858 58.217 13.1463 57.0238 12.0554C55.8306 10.9645 55.234 9.53693 55.234 7.77273C55.234 6.30682 55.6303 5.02841 56.4229 3.9375C57.2241 2.83807 58.2979 1.98579 59.6445 1.38068C60.9996 0.767045 62.5124 0.460226 64.1829 0.460226C65.8704 0.460226 67.3704 0.762783 68.6829 1.3679C69.9954 1.96449 71.0352 2.78267 71.8022 3.82244C72.5778 4.86221 72.9869 6.04261 73.0295 7.36364H69.9613ZM99.6683 9H96.4979C96.3104 8.08807 95.9822 7.28693 95.5135 6.59659C95.0533 5.90625 94.4908 5.3267 93.826 4.85795C93.1697 4.38068 92.4411 4.02273 91.6399 3.78409C90.8388 3.54545 90.0036 3.42614 89.1342 3.42614C87.549 3.42614 86.1129 3.8267 84.826 4.62784C83.5476 5.42898 82.5291 6.60938 81.7706 8.16903C81.0206 9.72869 80.6456 11.642 80.6456 13.9091C80.6456 16.1761 81.0206 18.0895 81.7706 19.6491C82.5291 21.2088 83.5476 22.3892 84.826 23.1903C86.1129 23.9915 87.549 24.392 89.1342 24.392C90.0036 24.392 90.8388 24.2727 91.6399 24.0341C92.4411 23.7955 93.1697 23.4418 93.826 22.973C94.4908 22.4957 95.0533 21.9119 95.5135 21.2216C95.9822 20.5227 96.3104 19.7216 96.4979 18.8182H99.6683C99.4297 20.1562 98.995 21.3537 98.3643 22.4105C97.7337 23.4673 96.9496 24.3665 96.0121 25.108C95.0746 25.8409 94.022 26.3991 92.8544 26.7827C91.6953 27.1662 90.4553 27.358 89.1342 27.358C86.9013 27.358 84.9155 26.8125 83.1768 25.7216C81.4382 24.6307 80.0703 23.0795 79.0732 21.0682C78.076 19.0568 77.5774 16.6705 77.5774 13.9091C77.5774 11.1477 78.076 8.76136 79.0732 6.75C80.0703 4.73864 81.4382 3.1875 83.1768 2.09659C84.9155 1.00568 86.9013 0.460226 89.1342 0.460226C90.4553 0.460226 91.6953 0.651988 92.8544 1.03551C94.022 1.41903 95.0746 1.98153 96.0121 2.72301C96.9496 3.45596 97.7337 4.35085 98.3643 5.40767C98.995 6.45596 99.4297 7.65341 99.6683 9ZM104.792 27V0.818181H107.962V12.4773H121.922V0.818181H125.093V27H121.922V15.2898H107.962V27H104.792ZM129.19 0.818181H132.821L140.082 13.0398H140.389L147.65 0.818181H151.281L141.821 16.2102V27H138.65V16.2102L129.19 0.818181ZM155.381 27V0.818181H158.552V13.8068H158.859L170.62 0.818181H174.762L163.768 12.6307L174.762 27H170.927L161.825 14.8295L158.552 18.5114V27H155.381Z" fill="white"/>
</svg>
